<svg width="221" height="220" viewBox="0 0 221 220" fill="none" xmlns="http://www.w3.org/2000/svg">
<path d="M101.334 155.833H119.667V100.833H101.334V155.833ZM110.501 82.4997C113.098 82.4997 115.276 81.6197 117.036 79.8597C118.79 78.1058 119.667 75.9302 119.667 73.333C119.667 70.7358 118.79 68.5572 117.036 66.7972C115.276 65.0433 113.098 64.1663 110.501 64.1663C107.903 64.1663 105.728 65.0433 103.974 66.7972C102.214 68.5572 101.334 70.7358 101.334 73.333C101.334 75.9302 102.214 78.1058 103.974 79.8597C105.728 81.6197 107.903 82.4997 110.501 82.4997ZM110.501 201.666C97.8201 201.666 85.9034 199.259 74.7507 194.443C63.5979 189.634 53.8965 183.104 45.6465 174.854C37.3965 166.604 30.8668 156.902 26.0573 145.75C21.2418 134.597 18.834 122.68 18.834 110C18.834 97.3191 21.2418 85.4025 26.0573 74.2497C30.8668 63.0969 37.3965 53.3955 45.6465 45.1455C53.8965 36.8955 63.5979 30.3627 74.7507 25.5472C85.9034 20.7377 97.8201 18.333 110.501 18.333C123.181 18.333 135.098 20.7377 146.251 25.5472C157.403 30.3627 167.105 36.8955 175.355 45.1455C183.605 53.3955 190.135 63.0969 194.944 74.2497C199.76 85.4025 202.167 97.3191 202.167 110C202.167 122.68 199.76 134.597 194.944 145.75C190.135 156.902 183.605 166.604 175.355 174.854C167.105 183.104 157.403 189.634 146.251 194.443C135.098 199.259 123.181 201.666 110.501 201.666ZM110.501 183.333C130.973 183.333 148.313 176.229 162.521 162.021C176.73 147.812 183.834 130.472 183.834 110C183.834 89.5275 176.73 72.1872 162.521 57.9788C148.313 43.7705 130.973 36.6663 110.501 36.6663C90.0284 36.6663 72.6882 43.7705 58.4798 57.9788C44.2715 72.1872 37.1673 89.5275 37.1673 110C37.1673 130.472 44.2715 147.812 58.4798 162.021C72.6882 176.229 90.0284 183.333 110.501 183.333Z" fill="white"/>
</svg>
