<svg width="221" height="220" viewBox="0 0 221 220" fill="none" xmlns="http://www.w3.org/2000/svg">
<path d="M105.183 139.058L158.624 192.5C163.208 196.937 169.351 199.394 175.73 199.343C182.109 199.291 188.212 196.734 192.723 192.223C197.233 187.713 199.79 181.61 199.842 175.231C199.894 168.852 197.436 162.708 192.999 158.125L139.127 104.253M105.183 139.058L128.063 111.283C130.969 107.763 134.846 105.545 139.136 104.262C144.178 102.758 149.797 102.538 155.114 102.978C162.28 103.594 169.483 102.324 176.008 99.2962C182.533 96.2681 188.152 91.5864 192.309 85.7157C196.465 79.8451 199.014 72.9896 199.703 65.8295C200.392 58.6694 199.196 51.4537 196.235 44.8983L166.205 74.9375C161.181 73.7757 156.584 71.2265 152.938 67.5801C149.291 63.9337 146.742 59.3367 145.58 54.3125L175.61 24.2825C169.055 21.3213 161.839 20.1258 154.679 20.8146C147.519 21.5034 140.664 24.0525 134.793 28.209C128.922 32.3656 124.241 37.985 121.212 44.5096C118.184 51.0343 116.915 58.2374 117.53 65.4042C118.364 75.2675 116.879 86.1575 109.244 92.4458L108.309 93.225M105.183 139.058L62.512 190.878C60.4439 193.398 57.8709 195.458 54.9586 196.925C52.0463 198.391 48.8592 199.232 45.6025 199.392C42.3458 199.552 39.0916 199.029 36.0494 197.855C33.0071 196.682 30.2443 194.885 27.9387 192.579C25.633 190.274 23.8357 187.511 22.6623 184.468C21.489 181.426 20.9656 178.172 21.1259 174.915C21.2862 171.659 22.1266 168.472 23.593 165.559C25.0595 162.647 27.1194 160.074 29.6403 158.006L92.3128 106.398L54.6653 68.75H41.7495L21.1245 34.375L34.8745 20.625L69.2495 41.25V54.1658L108.299 93.2158L92.3037 106.388M168.937 168.438L144.874 144.375M45.1137 175.313H45.187V175.386H45.1137V175.313Z" stroke="white" stroke-width="12" stroke-linecap="round" stroke-linejoin="round"/>
</svg>
