<svg width="186" height="186" viewBox="0 0 186 186" fill="none" xmlns="http://www.w3.org/2000/svg">
<path d="M82.0802 19.4762C89.0832 16.6369 96.9168 16.6369 103.92 19.4762L162.029 43.0362C164.532 44.05 166.676 45.788 168.185 48.0275C169.694 50.2671 170.5 52.9061 170.5 55.6067V99.2779C167.041 95.9582 163.126 93.1478 158.875 90.9311V60.2411L98.8125 83.4292V101.239C93.3694 107.055 89.3851 114.081 87.1875 121.737V83.4214L27.125 60.0629V130.417C27.126 130.802 27.2415 131.178 27.4568 131.497C27.6722 131.815 27.9775 132.063 28.334 132.208L86.4512 155.768C86.6915 155.868 86.9395 155.961 87.1875 156.047L88.6523 156.636C89.1095 156.822 89.5667 156.977 90.0395 157.101C91.9615 161.177 94.4182 164.959 97.3245 168.346C92.1731 169.121 86.908 168.497 82.0802 166.54L23.9707 142.98C21.4678 141.966 19.3244 140.228 17.8153 137.989C16.3062 135.749 15.5 133.11 15.5 130.41V55.6144C15.5 52.9139 16.3062 50.2748 17.8153 48.0353C19.3244 45.7958 21.4678 44.0578 23.9707 43.0439L82.0802 19.4762ZM99.5488 30.2487C95.3488 28.5468 90.6512 28.5468 86.4512 30.2487L71.61 36.2704L129.944 58.9547L150.637 50.9722L99.541 30.2564L99.5488 30.2487ZM35.5725 50.8714L93.0078 73.2146L113.855 65.1546L55.924 42.6254L35.5725 50.8714ZM135.625 93.0082C124.32 93.0082 113.478 97.499 105.485 105.493C97.4908 113.486 93 124.328 93 135.633C93 146.938 97.4908 157.78 105.485 165.774C113.478 173.767 124.32 178.258 135.625 178.258C146.93 178.258 157.772 173.767 165.765 165.774C173.759 157.78 178.25 146.938 178.25 135.633C178.25 124.328 173.759 113.486 165.765 105.493C157.772 97.499 146.93 93.0082 135.625 93.0082ZM108.515 135.308L108.632 134.641L108.787 134.153L109.058 133.634L109.306 133.262L129.007 113.515L129.549 113.073C130.295 112.562 131.196 112.329 132.096 112.413C132.996 112.496 133.838 112.892 134.477 113.531C135.116 114.17 135.512 115.012 135.596 115.912C135.679 116.812 135.446 117.713 134.935 118.459L134.493 119.002L121.722 131.766L162.75 131.758L163.447 131.82C164.222 131.962 164.935 132.335 165.491 132.892C166.048 133.449 166.422 134.161 166.563 134.936L166.625 135.633L166.563 136.331C166.422 137.105 166.048 137.818 165.491 138.374C164.935 138.931 164.222 139.305 163.447 139.446L162.75 139.5L121.737 139.508L134.493 152.257L134.935 152.799C135.382 153.447 135.621 154.214 135.621 155C135.621 155.787 135.382 156.554 134.935 157.201L134.493 157.744L133.951 158.186C133.304 158.632 132.536 158.871 131.75 158.871C130.964 158.871 130.196 158.632 129.549 158.186L129.007 157.744L109.538 138.268L109.19 137.834L108.864 137.261L108.632 136.617L108.539 136.152L108.5 135.718L108.515 135.308Z" fill="#3662A1"/>
</svg>
