<svg width="245" height="245" viewBox="0 0 245 245" fill="none" xmlns="http://www.w3.org/2000/svg">
<path d="M138.723 137.137C132.993 132.254 126.646 128.51 119.68 125.906C112.714 123.302 105.487 122 98 122C92.2708 122 86.737 122.749 81.3984 124.246C76.0599 125.743 71.0794 127.827 66.457 130.496C61.8346 133.165 57.6354 136.421 53.8594 140.262C50.0833 144.103 46.8281 148.335 44.0938 152.957C41.3594 157.579 39.2435 162.56 37.7461 167.898C36.2487 173.237 35.5 178.771 35.5 184.5H23C23 176.688 24.1393 169.168 26.418 161.941C28.6966 154.715 31.9844 148.042 36.2812 141.922C40.5781 135.802 45.6562 130.366 51.5156 125.613C57.375 120.861 64.0156 117.117 71.4375 114.383C64.0807 109.565 58.3516 103.51 54.25 96.2188C50.1484 88.9271 48.0651 80.8542 48 72C48 65.099 49.3021 58.6211 51.9062 52.5664C54.5104 46.5117 58.0586 41.2057 62.5508 36.6484C67.043 32.0911 72.349 28.5104 78.4687 25.9062C84.5885 23.3021 91.099 22 98 22C104.901 22 111.379 23.3021 117.434 25.9062C123.488 28.5104 128.794 32.0586 133.352 36.5508C137.909 41.043 141.49 46.349 144.094 52.4687C146.698 58.5885 148 65.099 148 72C148 76.2969 147.479 80.4961 146.437 84.5977C145.396 88.6992 143.833 92.5729 141.75 96.2188C139.667 99.8646 137.225 103.217 134.426 106.277C131.626 109.337 128.339 112.039 124.562 114.383C128.794 116.01 132.831 117.996 136.672 120.34C140.513 122.684 144.126 125.32 147.512 128.25L138.723 137.137ZM60.5 72C60.5 77.2083 61.4766 82.0586 63.4297 86.5508C65.3828 91.043 68.0521 95.0143 71.4375 98.4648C74.8229 101.915 78.7943 104.617 83.3516 106.57C87.9089 108.523 92.7917 109.5 98 109.5C103.143 109.5 107.993 108.523 112.551 106.57C117.108 104.617 121.079 101.948 124.465 98.5625C127.85 95.1771 130.552 91.2057 132.57 86.6484C134.589 82.0911 135.565 77.2083 135.5 72C135.5 66.8568 134.523 62.0065 132.57 57.4492C130.617 52.8919 127.948 48.9206 124.562 45.5352C121.177 42.1497 117.173 39.4479 112.551 37.4297C107.928 35.4115 103.078 34.4349 98 34.5C92.7917 34.5 87.9414 35.4766 83.4492 37.4297C78.957 39.3828 74.9857 42.0521 71.5352 45.4375C68.0846 48.8229 65.3828 52.8268 63.4297 57.4492C61.4766 62.0716 60.5 66.9219 60.5 72ZM191.75 97C196.047 97 200.083 97.8138 203.859 99.4414C207.635 101.069 210.923 103.315 213.723 106.18C216.522 109.044 218.768 112.365 220.461 116.141C222.154 119.917 223 123.953 223 128.25C223 132.547 222.186 136.583 220.559 140.359C218.931 144.135 216.685 147.456 213.82 150.32C210.956 153.185 207.635 155.431 203.859 157.059C200.083 158.686 196.047 159.5 191.75 159.5C190.253 159.5 188.788 159.402 187.355 159.207L130.031 216.531C128.273 218.289 126.255 219.624 123.977 220.535C121.698 221.447 119.289 221.935 116.75 222C114.146 222 111.704 221.512 109.426 220.535C107.147 219.559 105.161 218.224 103.469 216.531C101.776 214.839 100.441 212.853 99.4648 210.574C98.4883 208.296 98 205.854 98 203.25C98 200.776 98.4557 198.4 99.3672 196.121C100.279 193.842 101.646 191.792 103.469 189.969L160.793 132.645C160.598 131.212 160.5 129.747 160.5 128.25C160.5 123.953 161.314 119.917 162.941 116.141C164.569 112.365 166.783 109.077 169.582 106.277C172.382 103.478 175.702 101.232 179.543 99.5391C183.384 97.8464 187.453 97 191.75 97ZM191.75 147C194.354 147 196.796 146.512 199.074 145.535C201.353 144.559 203.339 143.224 205.031 141.531C206.724 139.839 208.059 137.853 209.035 135.574C210.012 133.296 210.5 130.854 210.5 128.25C210.5 125.581 209.882 122.911 208.645 120.242L194.387 134.5H185.5V125.613L199.758 111.355C197.089 110.118 194.419 109.5 191.75 109.5C189.146 109.5 186.704 109.988 184.426 110.965C182.147 111.941 180.161 113.276 178.469 114.969C176.776 116.661 175.441 118.647 174.465 120.926C173.488 123.204 173 125.646 173 128.25C173 130.919 173.618 133.589 174.855 136.258L112.355 198.855C111.118 200.092 110.5 201.557 110.5 203.25C110.5 204.943 111.118 206.408 112.355 207.645C113.592 208.882 115.057 209.5 116.75 209.5C118.443 209.5 119.908 208.882 121.145 207.645L183.742 145.145C186.411 146.382 189.081 147 191.75 147Z" fill="#3662A1"/>
</svg>
