<svg width="200" height="200" viewBox="0 0 200 200" fill="none" xmlns="http://www.w3.org/2000/svg">
<path d="M109.375 62.5V94.6094L137.188 110.625C139.328 111.882 140.888 113.93 141.531 116.327C142.174 118.724 141.849 121.278 140.625 123.438C139.79 124.853 138.603 126.029 137.179 126.85C135.755 127.671 134.144 128.111 132.5 128.125C130.854 128.138 129.234 127.706 127.813 126.875L95.3126 108.125L95.0782 107.969L94.6095 107.656L94.297 107.422L93.9063 107.109L93.5157 106.797L93.2813 106.484L92.8907 106.094L92.6563 105.859L92.3438 105.391L92.1095 105.078L91.8751 104.688L91.6407 104.297L91.4845 103.906L91.2501 103.438C91.2501 103.281 91.172 103.203 91.172 103.047C91.0848 102.905 91.0313 102.744 91.0157 102.578L90.8595 102.188C90.8595 102.031 90.7813 101.875 90.7813 101.719C90.7813 101.563 90.7032 101.406 90.7032 101.25V100.781C90.634 100.608 90.6072 100.42 90.6251 100.234V62.5C90.6251 60.0136 91.6128 57.6291 93.371 55.8709C95.1291 54.1128 97.5137 53.125 100 53.125C102.486 53.125 104.871 54.1128 106.629 55.8709C108.387 57.6291 109.375 60.0136 109.375 62.5ZM176.953 87.1094L177.422 86.9532H177.891L178.281 86.7969L178.75 86.6407L179.141 86.4844L179.531 86.25L179.922 86.0157L180.313 85.7813L180.703 85.4688L181.094 85.2344C181.34 85.0676 181.552 84.8555 181.719 84.6094H181.797L182.344 83.9063L182.656 83.5938L182.891 83.2032L183.203 82.8125L183.359 82.4219L183.594 81.9532L183.828 81.5625C183.834 81.4182 183.889 81.2802 183.984 81.1719C183.984 81.0157 184.063 80.8594 184.063 80.7032C184.063 80.5469 184.141 80.3907 184.219 80.3125C184.297 80.2344 184.297 80 184.297 79.8438C184.355 79.6676 184.382 79.4824 184.375 79.2969C184.438 79.177 184.465 79.0413 184.453 78.9063C184.453 78.5938 184.531 78.2813 184.531 77.9688V46.7188C184.531 44.2324 183.544 41.8478 181.785 40.0897C180.027 38.3315 177.643 37.3438 175.156 37.3438C172.67 37.3438 170.285 38.3315 168.527 40.0897C166.769 41.8478 165.781 44.2324 165.781 46.7188V55.3125L155.234 44.7657C144.309 33.8373 130.389 26.3943 115.234 23.3779C100.078 20.3615 84.3686 21.9073 70.0917 27.8197C55.8149 33.7321 43.612 43.7456 35.0265 56.5937C26.4409 69.4418 21.8584 84.5474 21.8584 100C21.8584 115.453 26.4409 130.558 35.0265 143.406C43.612 156.255 55.8149 166.268 70.0917 172.18C84.3686 178.093 100.078 179.639 115.234 176.622C130.389 173.606 144.309 166.163 155.234 155.234C156.108 154.363 156.802 153.329 157.275 152.189C157.748 151.049 157.992 149.828 157.992 148.594C157.992 147.36 157.748 146.138 157.275 144.999C156.802 143.859 156.108 142.824 155.234 141.953C153.456 140.225 151.074 139.259 148.594 139.259C146.114 139.259 143.732 140.225 141.953 141.953C133.658 150.239 123.092 155.88 111.591 158.162C100.091 160.445 88.1715 159.267 77.3404 154.777C66.5092 150.287 57.2523 142.686 50.7397 132.937C44.227 123.187 40.751 111.725 40.751 100C40.751 88.2751 44.227 76.8133 50.7397 67.0635C57.2523 57.3136 66.5092 49.7134 77.3404 45.2233C88.1715 40.7333 100.091 39.5551 111.591 41.8376C123.092 44.1201 133.658 49.7609 141.953 58.0469L152.5 68.5157H143.906C141.42 68.5157 139.035 69.5034 137.277 71.2615C135.519 73.0197 134.531 75.4043 134.531 77.8907C134.531 80.3771 135.519 82.7616 137.277 84.5198C139.035 86.2779 141.42 87.2657 143.906 87.2657H176.953V87.1094Z" fill="#3662A1"/>
</svg>
